 http://www.imdb.com/title/tt1020558/

Release Date: 27 August 2010 (USA)

Genre: Action | Adventure | Drama | History | Thriller | War

Plot: A splinter group of Roman soldiers fight for their lives behind enemy lines after their legion is decimated in a devastating guerrilla attack.

Cast:
Michael Fassbender ... Quintus Dias
Dominic West ... Virilus
Olga Kurylenko ... Etain
Noel Clarke ... Macros
David Morrissey ... Bothos
JJ Feild ... Thax
Axelle Carolyn ... Aeron
Riz Ahmed
Dave Legeno ... Vortix
Ulrich Thomsen ... Gorlacon
James Currie ... Maximus
Dhaffer L'Abidine ... Vigo
Hamish Moir ... Pictish Warrior
Imogen Poots ... Arian
Rachael Stirling ... Drusilla


File Name

Centurion 2010 816p BRRip H264.mp4

File Size
Format : MPEG-4
Format profile : Base Media
Codec ID : isom
File size : 3.74 GiB
Duration : 1h 37mn
Overall bit rate : 5 491 Kbps

Video
ID : 1
Format : AVC
Format/Info : Advanced Video Codec
Format profile : High@L4.1
Format settings, CABAC : Yes
Format settings, ReFrames : 3 frames
Codec ID : avc1
Codec ID/Info : Advanced Video Coding
Duration : 1h 37mn
Bit rate mode : Variable
Bit rate : 4 849 Kbps
Maximum bit rate : 20.5 Mbps
Width : 1 920 pixels
Height : 816 pixels
Display aspect ratio : 2.35:1
Frame rate mode : Constant
Frame rate : 23.976 fps
Resolution : 24 bits
Colorimetry : 4:2:0
Scan type : Progressive
Bits/(Pixel*Frame) : 0.129
Stream size : 3.30 GiB (88%)

Audio #1
ID : 2
Format : AAC
Format/Info : Advanced Audio Codec
Format version : Version 4
Format profile : LC
Format settings, SBR : No
Codec ID : 40
Duration : 1h 37mn
Bit rate mode : Variable
Bit rate : 192 Kbps
Maximum bit rate : 198 Kbps
Channel(s) : 2 channels
Channel positions : L R
Sampling rate : 48.0 KHz
Resolution : 16 bits
Stream size : 133 MiB (3%)

Audio #2
ID : 3
Format : AAC
Format/Info : Advanced Audio Codec
Format version : Version 4
Format profile : LC
Format settings, SBR : No
Codec ID : 40
Duration : 1h 37mn
Bit rate mode : Variable
Bit rate : 448 Kbps
Maximum bit rate : 464 Kbps
Channel(s) : 6 channels
Channel positions : Front: L C R, Rear: L R, LFE
Sampling rate : 48.0 KHz
Resolution : 16 bits
Stream size : 312 MiB (8%)

English Subs : Forced in foreign speaking parts

Language : English
 
http://thumbnails24.imagebam.com/9317/fc055e93167698.jpg